<svg width="32" height="32" viewBox="0 0 32 32" xmlns="http://www.w3.org/2000/svg">
  <circle cx="16" cy="16" r="16" fill="#00D395"/>
  <path d="M23.5 9.5C23.2 9.2 22.8 9.2 22.5 9.5L19 13L16.5 10.5C16.2 10.2 15.8 10.2 15.5 10.5L9.5 16.5C9.2 16.8 9.2 17.2 9.5 17.5L12 20L14.5 22.5C14.8 22.8 15.2 22.8 15.5 22.5L21.5 16.5C21.8 16.2 21.8 15.8 21.5 15.5L19 13L21.5 10.5L23.5 12.5C23.8 12.8 23.8 13.2 23.5 13.5L21 16L18.5 18.5C18.2 18.8 17.8 18.8 17.5 18.5L15 16C14.7 15.7 14.7 15.3 15 15L17.5 12.5C17.8 12.2 18.2 12.2 18.5 12.5L21 15L23.5 12.5C24.1 11.9 24.1 10.9 23.5 10.3L21 7.8C20.4 7.2 19.4 7.2 18.8 7.8L16.3 10.3L13.8 7.8C13.2 7.2 12.2 7.2 11.6 7.8L8.8 10.6C8.2 11.2 8.2 12.2 8.8 12.8L11.3 15.3L8.8 17.8C8.2 18.4 8.2 19.4 8.8 20L11.6 22.8C12.2 23.4 13.2 23.4 13.8 22.8L16.3 20.3L18.8 22.8C19.4 23.4 20.4 23.4 21 22.8L23.8 20C24.4 19.4 24.4 18.4 23.8 17.8L21.3 15.3L23.8 12.8C24.1 12.5 24.1 12.1 23.8 11.8L23.5 11.5L23.5 9.5Z" fill="white"/>
</svg>