<svg width="32" height="32" viewBox="0 0 32 32" xmlns="http://www.w3.org/2000/svg">
  <circle cx="16" cy="16" r="16" fill="#8247E5"/>
  <path d="M20.8 12.8L17.6 10.9C16.9 10.5 16.1 10.5 15.4 10.9L12.2 12.8C11.5 13.2 11.1 13.9 11.1 14.7V18.3C11.1 19.1 11.5 19.8 12.2 20.2L15.4 22.1C16.1 22.5 16.9 22.5 17.6 22.1L20.8 20.2C21.5 19.8 21.9 19.1 21.9 18.3V14.7C21.9 13.9 21.5 13.2 20.8 12.8ZM18.5 17.5L16.5 18.6C16.2 18.8 15.8 18.8 15.5 18.6L13.5 17.5C13.2 17.3 13 17 13 16.7V14.5C13 14.2 13.2 13.9 13.5 13.7L15.5 12.6C15.8 12.4 16.2 12.4 16.5 12.6L18.5 13.7C18.8 13.9 19 14.2 19 14.5V16.7C19 17 18.8 17.3 18.5 17.5Z" fill="white"/>
</svg>